<svg width="20" height="20" viewBox="0 0 20 20" fill="none" xmlns="http://www.w3.org/2000/svg">
<path d="M10 9.99996C10 9.40163 10.485 8.91663 11.0833 8.91663H17.5833C18.1817 8.91663 18.6667 9.40163 18.6667 9.99996V17.5833C18.6667 18.1816 18.1817 18.6666 17.5833 18.6666H11.0833C10.485 18.6666 10 18.1816 10 17.5833V9.99996Z" stroke="#1E2737" strokeWidth="2" strokeLinecap="round"/>
<path d="M1 2.125C1 1.50368 1.53726 1 2.2 1H5.8C6.46274 1 7 1.50368 7 2.125V17.875C7 18.4963 6.46274 19 5.8 19H2.2C1.53726 19 1 18.4963 1 17.875V2.125Z" stroke="#1E2737" strokeWidth="2" strokeLinecap="round"/>
<path d="M10 2.41671C10 1.8184 10.485 1.33337 11.0833 1.33337H17.5833C18.1817 1.33337 18.6667 1.8184 18.6667 2.41671V4.58337C18.6667 5.18168 18.1817 5.66671 17.5833 5.66671H11.0833C10.485 5.66671 10 5.18168 10 4.58337V2.41671Z" stroke="#1E2737" strokeWidth="2" strokeLinecap="round"/>
</svg>
