<svg width="20" height="20" viewBox="0 0 20 20" fill="none" xmlns="http://www.w3.org/2000/svg">
<g clip-path="url(#clip0_8_687)">
<path d="M18.9855 17.9478H2.02899V1.03756C2.02899 0.477274 1.57478 0.0230713 1.01449 0.0230713C0.454203 0.0230713 0 0.477274 0 1.03756V18.9623C0 19.5226 0.454203 19.9768 1.01449 19.9768H18.9855C19.5458 19.9768 20 19.5226 20 18.9623C20 18.402 19.5458 17.9478 18.9855 17.9478Z" fill="black"/>
<path d="M4.37984 13.6204C4.65445 13.6204 4.92813 13.5096 5.12824 13.2911L7.95398 10.2058L13.0084 12.4257C13.4432 12.6167 13.9525 12.4804 14.2338 12.0977L17.3345 7.87955L17.595 9.69526C17.6675 10.2011 18.1014 10.5659 18.5979 10.5659C18.6459 10.5659 18.6944 10.5624 18.7432 10.5554C19.2978 10.4759 19.6829 9.96181 19.6034 9.4072L18.9874 5.11236C18.9078 4.55775 18.3936 4.17283 17.8391 4.25219L13.5444 4.86819C12.9898 4.94772 12.6046 5.46181 12.6842 6.01642C12.7637 6.57103 13.2779 6.95619 13.8324 6.87659L15.7565 6.60065L13.0804 10.2412L8.10459 8.05584C7.70685 7.88117 7.24198 7.97914 6.94853 8.29949L3.63201 11.9207C3.25358 12.3338 3.28175 12.9755 3.69491 13.354C3.88963 13.5324 4.13514 13.6204 4.37984 13.6204Z" fill="black"/>
</g>
<defs>
<clipPath id="clip0_8_687">
<rect width="20" height="20" fill="white"/>
</clipPath>
</defs>
</svg>
