<svg width="36" height="54" viewBox="0 0 36 54" fill="none" xmlns="http://www.w3.org/2000/svg">
<circle cx="18" cy="36" r="17" stroke="#878787" stroke-width="2"/>
<path fill-rule="evenodd" clip-rule="evenodd" d="M9.43749 32.875H10.6458V38.9167H26.3542V32.875H27.5625V38.9167H28.4687C28.6355 38.9167 28.7708 39.0519 28.7708 39.2188V39.8229C28.7708 39.9897 28.6355 40.125 28.4687 40.125H8.53124C8.36441 40.125 8.22916 39.9897 8.22916 39.8229V39.2188C8.22916 39.0519 8.36441 38.9167 8.53124 38.9167H9.43749V32.875ZM10.0417 41.9375V46.1667H26.9583V41.9375H10.0417ZM9.43749 40.7292C9.10382 40.7292 8.83332 40.9997 8.83332 41.3333V46.7708C8.83332 47.1045 9.10382 47.375 9.43749 47.375H27.5625C27.8962 47.375 28.1667 47.1045 28.1667 46.7708V41.3333C28.1667 40.9997 27.8962 40.7292 27.5625 40.7292H9.43749Z" fill="#878787"/>
<path fill-rule="evenodd" clip-rule="evenodd" d="M10.1557 26.8333L8.85964 30.4057C8.84226 30.4536 8.83333 30.5043 8.83333 30.5555V31.9996C8.83333 32.4878 9.22451 32.875 9.69643 32.875C10.1684 32.875 10.5595 32.4878 10.5595 31.9996C10.5595 31.6659 10.83 31.3954 11.1637 31.3954C11.4973 31.3954 11.7678 31.6659 11.7678 31.9996C11.7678 32.4878 12.159 32.875 12.6309 32.875C13.1029 32.875 13.4941 32.4878 13.4941 31.9996C13.4941 31.6659 13.7645 31.3954 14.0982 31.3954C14.4319 31.3954 14.7024 31.6659 14.7024 31.9996C14.7024 32.4878 15.0936 32.875 15.5655 32.875C16.0372 32.875 16.4282 32.4882 16.4286 32.0003C16.4289 31.6668 16.6993 31.3966 17.0327 31.3966C17.3662 31.3966 17.6366 31.6668 17.6369 32.0003C17.6373 32.4882 18.0283 32.875 18.5 32.875C18.9719 32.875 19.3631 32.4878 19.3631 31.9996C19.3631 31.6659 19.6336 31.3954 19.9673 31.3954C20.301 31.3954 20.5714 31.6659 20.5714 31.9996C20.5714 32.4878 20.9626 32.875 21.4345 32.875C21.9062 32.875 22.2972 32.4882 22.2976 32.0003C22.2979 31.6668 22.5683 31.3966 22.9018 31.3966C23.2353 31.3966 23.5057 31.6668 23.5059 32.0003C23.5064 32.4882 23.8974 32.875 24.3691 32.875C24.841 32.875 25.2322 32.4878 25.2322 31.9996C25.2322 31.6659 25.5027 31.3954 25.8363 31.3954C26.17 31.3954 26.4405 31.6659 26.4405 31.9996C26.4405 32.4878 26.8316 32.875 27.3036 32.875C27.7755 32.875 28.1667 32.4878 28.1667 31.9996V30.5555C28.1667 30.5043 28.1577 30.4536 28.1404 30.4057L26.8443 26.8333H10.1557ZM26.8232 26.7753C26.8232 26.7753 26.8232 26.7754 26.8232 26.7753ZM25.8363 33.4705C25.462 33.8486 24.9438 34.0833 24.3691 34.0833C23.7943 34.0833 23.2761 33.8486 22.9018 33.4705C22.5275 33.8486 22.0093 34.0833 21.4345 34.0833C20.8598 34.0833 20.3416 33.8486 19.9673 33.4705C19.5929 33.8486 19.0748 34.0833 18.5 34.0833C17.9252 34.0833 17.4071 33.8486 17.0327 33.4705C16.6584 33.8486 16.1402 34.0833 15.5655 34.0833C14.9907 34.0833 14.4725 33.8486 14.0982 33.4705C13.7239 33.8486 13.2057 34.0833 12.6309 34.0833C12.0562 34.0833 11.538 33.8486 11.1637 33.4705C10.7894 33.8486 10.2712 34.0833 9.69643 34.0833C8.54765 34.0833 7.625 33.1456 7.625 31.9996V30.5555C7.625 30.364 7.6584 30.1738 7.72375 29.9936L9.04094 26.363C9.20084 25.9223 9.61882 25.625 10.0911 25.625H26.9089C27.3812 25.625 27.7992 25.9223 27.9591 26.363L29.2763 29.9936C29.3416 30.1738 29.375 30.364 29.375 30.5555V31.9996C29.375 33.1456 28.4523 34.0833 27.3036 34.0833C26.7288 34.0833 26.2106 33.8486 25.8363 33.4705Z" fill="#878787"/>
<path d="M11.25 37.4061C11.25 37.2393 11.3853 37.104 11.5521 37.104H13.3646C13.5314 37.104 13.6667 37.2393 13.6667 37.4061V38.6144C13.6667 38.7812 13.5314 38.9165 13.3646 38.9165H11.5521C11.3853 38.9165 11.25 38.7812 11.25 38.6144V37.4061Z" fill="#878787"/>
<path d="M12.4583 38.0106C12.4583 37.8438 12.5936 37.7085 12.7604 37.7085H14.5729C14.7397 37.7085 14.875 37.8438 14.875 38.0106V38.6147C14.875 38.7816 14.7397 38.9168 14.5729 38.9168H12.7604C12.5936 38.9168 12.4583 38.7816 12.4583 38.6147V38.0106Z" fill="#878787"/>
<path d="M17.2917 38.0103C17.2917 38.5107 16.8859 38.9165 16.3854 38.9165C15.8849 38.9165 15.4792 38.5107 15.4792 38.0103C15.4792 37.5098 15.8849 37.104 16.3854 37.104C16.8859 37.104 17.2917 37.5098 17.2917 38.0103Z" fill="#878787"/>
<path d="M2.95881 12V3.27273H4.27557V10.8665H8.23011V12H2.95881ZM12.3871 12.1321C11.7734 12.1321 11.2379 11.9915 10.7805 11.7102C10.3232 11.429 9.96804 11.0355 9.7152 10.5298C9.46236 10.0241 9.33594 9.43324 9.33594 8.7571C9.33594 8.07812 9.46236 7.48437 9.7152 6.97585C9.96804 6.46733 10.3232 6.07244 10.7805 5.79119C11.2379 5.50994 11.7734 5.36932 12.3871 5.36932C13.0007 5.36932 13.5362 5.50994 13.9936 5.79119C14.451 6.07244 14.8061 6.46733 15.0589 6.97585C15.3118 7.48437 15.4382 8.07812 15.4382 8.7571C15.4382 9.43324 15.3118 10.0241 15.0589 10.5298C14.8061 11.0355 14.451 11.429 13.9936 11.7102C13.5362 11.9915 13.0007 12.1321 12.3871 12.1321ZM12.3913 11.0625C12.7891 11.0625 13.1186 10.9574 13.38 10.7472C13.6413 10.5369 13.8345 10.2571 13.9595 9.90767C14.0874 9.55824 14.1513 9.1733 14.1513 8.75284C14.1513 8.33523 14.0874 7.9517 13.9595 7.60227C13.8345 7.25 13.6413 6.96733 13.38 6.75426C13.1186 6.54119 12.7891 6.43466 12.3913 6.43466C11.9908 6.43466 11.6584 6.54119 11.3942 6.75426C11.1328 6.96733 10.9382 7.25 10.8104 7.60227C10.6854 7.9517 10.6229 8.33523 10.6229 8.75284C10.6229 9.1733 10.6854 9.55824 10.8104 9.90767C10.9382 10.2571 11.1328 10.5369 11.3942 10.7472C11.6584 10.9574 11.9908 11.0625 12.3913 11.0625ZM19.6175 12.1321C18.984 12.1321 18.4386 11.9886 17.9812 11.7017C17.5266 11.4119 17.1772 11.0128 16.9329 10.5043C16.6886 9.99574 16.5664 9.41335 16.5664 8.7571C16.5664 8.09233 16.6914 7.50568 16.9414 6.99716C17.1914 6.4858 17.5437 6.08665 17.9982 5.79972C18.4528 5.51278 18.9883 5.36932 19.6048 5.36932C20.1019 5.36932 20.5451 5.46165 20.9343 5.64631C21.3235 5.82812 21.6374 6.08381 21.8761 6.41335C22.1175 6.7429 22.261 7.12784 22.3065 7.56818H21.0664C20.9982 7.26136 20.842 6.99716 20.5977 6.77557C20.3562 6.55398 20.0323 6.44318 19.6261 6.44318C19.271 6.44318 18.9599 6.53693 18.6928 6.72443C18.4286 6.90909 18.2227 7.1733 18.0749 7.51705C17.9272 7.85795 17.8533 8.26136 17.8533 8.72727C17.8533 9.20455 17.9258 9.61648 18.0707 9.96307C18.2156 10.3097 18.4201 10.5781 18.6843 10.7685C18.9513 10.9588 19.2653 11.054 19.6261 11.054C19.8675 11.054 20.0863 11.0099 20.2823 10.9219C20.4812 10.831 20.6474 10.7017 20.7809 10.5341C20.9173 10.3665 21.0124 10.1648 21.0664 9.92898H22.3065C22.261 10.3523 22.1232 10.7301 21.8931 11.0625C21.663 11.3949 21.3548 11.6562 20.9684 11.8466C20.5849 12.0369 20.1346 12.1321 19.6175 12.1321ZM25.5739 12.1449C25.1591 12.1449 24.7841 12.0682 24.4489 11.9148C24.1136 11.7585 23.848 11.5327 23.652 11.2372C23.4588 10.9418 23.3622 10.5795 23.3622 10.1506C23.3622 9.78125 23.4332 9.47727 23.5753 9.23864C23.7173 9 23.9091 8.81108 24.1506 8.67188C24.392 8.53267 24.6619 8.42756 24.9602 8.35653C25.2585 8.28551 25.5625 8.23153 25.8722 8.1946C26.2642 8.14915 26.5824 8.11222 26.8267 8.08381C27.071 8.05256 27.2486 8.00284 27.3594 7.93466C27.4702 7.86648 27.5256 7.75568 27.5256 7.60227V7.57244C27.5256 7.20028 27.4205 6.91193 27.2102 6.70739C27.0028 6.50284 26.6932 6.40057 26.2812 6.40057C25.8523 6.40057 25.5142 6.49574 25.267 6.68608C25.0227 6.87358 24.8537 7.08239 24.7599 7.3125L23.5625 7.03977C23.7045 6.64205 23.9119 6.32102 24.1847 6.0767C24.4602 5.82955 24.777 5.65057 25.1349 5.53977C25.4929 5.42614 25.8693 5.36932 26.2642 5.36932C26.5256 5.36932 26.8026 5.40057 27.0952 5.46307C27.3906 5.52273 27.6662 5.63352 27.9219 5.79545C28.1804 5.95739 28.392 6.18892 28.5568 6.49006C28.7216 6.78835 28.804 7.17614 28.804 7.65341V12H27.5597V11.1051H27.5085C27.4261 11.2699 27.3026 11.4318 27.1378 11.5909C26.973 11.75 26.7614 11.8821 26.5028 11.9872C26.2443 12.0923 25.9347 12.1449 25.5739 12.1449ZM25.8509 11.1222C26.2031 11.1222 26.5043 11.0526 26.7543 10.9134C27.0071 10.7741 27.1989 10.5923 27.3295 10.3679C27.4631 10.1406 27.5298 9.89773 27.5298 9.6392V8.79545C27.4844 8.84091 27.3963 8.88352 27.2656 8.9233C27.1378 8.96023 26.9915 8.9929 26.8267 9.02131C26.6619 9.04687 26.5014 9.07102 26.3452 9.09375C26.1889 9.11364 26.0582 9.13068 25.9531 9.14489C25.706 9.17614 25.4801 9.22869 25.2756 9.30256C25.0739 9.37642 24.9119 9.48295 24.7898 9.62216C24.6705 9.75852 24.6108 9.94034 24.6108 10.1676C24.6108 10.483 24.7273 10.7216 24.9602 10.8835C25.1932 11.0426 25.4901 11.1222 25.8509 11.1222ZM31.7752 3.27273V12H30.5011V3.27273H31.7752Z" fill="#878787"/>
</svg>
