<svg width="20" height="20" viewBox="0 0 20 20" fill="none" xmlns="http://www.w3.org/2000/svg">
<path d="M0 16.26V3.76C0 2.72 0.366667 1.83333 1.1 1.1C1.83333 0.366667 2.72 0 3.76 0H16.26C17.2867 0 18.1667 0.366667 18.9 1.1C19.6333 1.83333 20 2.72 20 3.76V16.26C20 17.3 19.6333 18.18 18.9 18.9C18.1667 19.62 17.2867 19.9867 16.26 20H3.76C2.72 20 1.83333 19.6333 1.1 18.9C0.366667 18.1667 0 17.2867 0 16.26ZM2.5 16.26C2.5 16.6067 2.62 16.9 2.86 17.14C3.1 17.38 3.4 17.5 3.76 17.5H16.26C16.5933 17.5 16.8867 17.38 17.14 17.14C17.3933 16.9 17.5133 16.6067 17.5 16.26V3.76C17.5 3.41333 17.38 3.12 17.14 2.88C16.9 2.64 16.6067 2.51333 16.26 2.5H3.76C3.41333 2.5 3.11333 2.62667 2.86 2.88C2.60667 3.13333 2.48667 3.42667 2.5 3.76V16.26ZM5 15V11.26H8.76V15H5ZM5 8.76V5H8.76V8.76H5ZM11.26 15V5H15V15H11.26Z" fill="#1E2737"/>
</svg>
