<svg width="36" height="54" viewBox="0 0 36 54" fill="none" xmlns="http://www.w3.org/2000/svg">
<path d="M24.2811 27.2504L24.2706 27.25H24.26H11.76C11.2594 27.25 10.829 27.4588 10.49 27.8317C10.1536 28.2018 9.98431 28.6473 10 29.1444V42.886C10 43.3824 10.1603 43.8276 10.49 44.1903C10.8258 44.5596 11.2606 44.75 11.76 44.75H24.26C24.7436 44.75 25.1633 44.5518 25.5008 44.2002C25.8499 43.8364 26.0155 43.3839 26 42.8778V29.136C26 28.6396 25.8397 28.1944 25.51 27.8317C25.183 27.472 24.7654 27.2709 24.2811 27.2504ZM8.5 42.886V29.136C8.5 28.1096 8.82473 27.2561 9.46997 26.5463C10.1137 25.8382 10.8684 25.5 11.76 25.5H24.26C25.1363 25.5 25.8849 25.8366 26.53 26.5463C27.1753 27.2561 27.5 28.1096 27.5 29.136V42.886C27.5 43.9123 27.1754 44.7566 26.5331 45.4503C25.8882 46.1468 25.1371 46.4866 24.2563 46.5H11.76C10.8684 46.5 10.1137 46.1618 9.46997 45.4537C8.82356 44.7426 8.5 43.8959 8.5 42.886ZM13.5 41V37.886H16.26V41H13.5ZM13.5 34.136V31H16.26V34.136H13.5ZM19.76 41V31H22.5V41H19.76Z" stroke="#06B0AB"/>
<circle cx="18" cy="36" r="17" stroke="#06B0AB" strokeWidth="2"/>
<path d="M16.5398 7.63636C16.5398 8.56818 16.3693 9.36932 16.0284 10.0398C15.6875 10.7074 15.2202 11.2216 14.6264 11.5824C14.0355 11.9403 13.3636 12.1193 12.6108 12.1193C11.8551 12.1193 11.1804 11.9403 10.5866 11.5824C9.99574 11.2216 9.52983 10.706 9.18892 10.0355C8.84801 9.36506 8.67756 8.56534 8.67756 7.63636C8.67756 6.70455 8.84801 5.90483 9.18892 5.23722C9.52983 4.56676 9.99574 4.05256 10.5866 3.6946C11.1804 3.33381 11.8551 3.15341 12.6108 3.15341C13.3636 3.15341 14.0355 3.33381 14.6264 3.6946C15.2202 4.05256 15.6875 4.56676 16.0284 5.23722C16.3693 5.90483 16.5398 6.70455 16.5398 7.63636ZM15.2358 7.63636C15.2358 6.92614 15.1207 6.32812 14.8906 5.84233C14.6634 5.35369 14.3509 4.98438 13.9531 4.73438C13.5582 4.48153 13.1108 4.35511 12.6108 4.35511C12.108 4.35511 11.6591 4.48153 11.2642 4.73438C10.8693 4.98438 10.5568 5.35369 10.3267 5.84233C10.0994 6.32812 9.9858 6.92614 9.9858 7.63636C9.9858 8.34659 10.0994 8.94602 10.3267 9.43466C10.5568 9.92045 10.8693 10.2898 11.2642 10.5426C11.6591 10.7926 12.108 10.9176 12.6108 10.9176C13.1108 10.9176 13.5582 10.7926 13.9531 10.5426C14.3509 10.2898 14.6634 9.92045 14.8906 9.43466C15.1207 8.94602 15.2358 8.34659 15.2358 7.63636ZM18.3679 12.081C18.1349 12.081 17.9347 11.9986 17.767 11.8338C17.5994 11.6662 17.5156 11.4645 17.5156 11.2287C17.5156 10.9957 17.5994 10.7969 17.767 10.6321C17.9347 10.4645 18.1349 10.3807 18.3679 10.3807C18.6009 10.3807 18.8011 10.4645 18.9688 10.6321C19.1364 10.7969 19.2202 10.9957 19.2202 11.2287C19.2202 11.3849 19.1804 11.5284 19.1009 11.6591C19.0241 11.7869 18.9219 11.8892 18.794 11.9659C18.6662 12.0426 18.5241 12.081 18.3679 12.081ZM25.7891 5.56534C25.7436 5.16193 25.5561 4.84943 25.2266 4.62784C24.897 4.40341 24.4822 4.29119 23.9822 4.29119C23.6243 4.29119 23.3146 4.34801 23.0533 4.46165C22.7919 4.57244 22.5888 4.72585 22.4439 4.92188C22.3018 5.11506 22.2308 5.33523 22.2308 5.58239C22.2308 5.78977 22.2791 5.96875 22.3757 6.11932C22.4751 6.26989 22.6044 6.39631 22.7635 6.49858C22.9254 6.59801 23.0987 6.68182 23.2834 6.75C23.468 6.81534 23.6456 6.86932 23.8161 6.91193L24.6683 7.13352C24.9467 7.2017 25.2322 7.29403 25.5249 7.41051C25.8175 7.52699 26.0888 7.6804 26.3388 7.87074C26.5888 8.06108 26.7905 8.29688 26.9439 8.57812C27.1001 8.85938 27.1783 9.19602 27.1783 9.58807C27.1783 10.0824 27.0504 10.5213 26.7947 10.9048C26.5419 11.2884 26.174 11.5909 25.6911 11.8125C25.2109 12.0341 24.63 12.1449 23.9482 12.1449C23.2947 12.1449 22.7294 12.0412 22.2521 11.8338C21.7749 11.6264 21.4013 11.3324 21.1314 10.9517C20.8615 10.5682 20.7124 10.1136 20.6839 9.58807H22.005C22.0305 9.90341 22.1328 10.1662 22.3118 10.3764C22.4936 10.5838 22.7251 10.7386 23.0064 10.8409C23.2905 10.9403 23.6016 10.9901 23.9396 10.9901C24.3118 10.9901 24.6428 10.9318 24.9325 10.8153C25.2251 10.696 25.4553 10.5312 25.6229 10.321C25.7905 10.108 25.8743 9.85937 25.8743 9.57528C25.8743 9.31676 25.8004 9.10511 25.6527 8.94034C25.5078 8.77557 25.3104 8.6392 25.0604 8.53125C24.8132 8.4233 24.5334 8.32812 24.2209 8.24574L23.1896 7.96449C22.4908 7.77415 21.9368 7.49432 21.5277 7.125C21.1214 6.75568 20.9183 6.26705 20.9183 5.65909C20.9183 5.15625 21.0547 4.71733 21.3274 4.34233C21.6001 3.96733 21.9695 3.67614 22.4354 3.46875C22.9013 3.25852 23.4268 3.15341 24.0121 3.15341C24.603 3.15341 25.1243 3.2571 25.576 3.46449C26.0305 3.67188 26.3885 3.95739 26.6499 4.32102C26.9112 4.68182 27.0476 5.09659 27.0589 5.56534H25.7891Z" fill="#06B0AB"/>
</svg>
