<svg width="44" height="44" viewBox="0 0 44 44" fill="none" xmlns="http://www.w3.org/2000/svg">
<rect width="44" height="44" fill="#1E1E1E"/>
<g id="Desktop clientes update light" clip-path="url(#clip0_0_1)">
<rect id="background" x="-863" y="-268" width="1440" height="1024" fill="#F3F5F7"/>
<g id="Group 40">
<rect id="Rectangle 41" x="-275.5" y="-56.5" width="601" height="697" rx="22.5" fill="white" stroke="#C8C8C8"/>
</g>
<path id="Vector" fill-rule="evenodd" clip-rule="evenodd" d="M23.8328 20.1666C27.4093 20.1666 29.7986 18.9341 31.3579 16.8552C32.7427 15.0086 33.3352 12.6349 33.8198 10.6937L33.861 10.528C34.3997 8.37355 34.8448 6.70575 35.7405 5.51145C36.5017 4.49663 37.7216 3.66666 40.3324 3.66666C41.3449 3.66666 42.1656 2.84584 42.1656 1.83333C42.1656 0.820809 41.3449 0 40.3324 0C36.7558 0 34.3665 1.23253 32.8073 3.31145C31.4224 5.158 30.8299 7.5317 30.3453 9.47296L30.3041 9.63866C29.7655 11.7931 29.3203 13.4609 28.4246 14.6552C27.6634 15.67 26.4435 16.5 23.8328 16.5C22.8202 16.5 21.9995 17.3208 21.9995 18.3333C21.9995 19.3458 22.8202 20.1666 23.8328 20.1666ZM15.0359 0.73472C15.6437 -0.0750855 16.7929 -0.238848 17.6027 0.368947C18.758 1.23607 19.7311 2.32226 20.4667 3.56551C21.2022 4.80875 21.6856 6.1847 21.8895 7.61479C22.0933 9.04488 22.0134 10.5011 21.6544 11.9003C21.2955 13.2995 20.6643 14.6143 19.7973 15.7697C19.1894 16.5795 18.0403 16.7432 17.2305 16.1355C16.4207 15.5277 16.257 14.3785 16.8647 13.5687C17.4428 12.7984 17.8635 11.9219 18.1028 10.9891C18.3422 10.0563 18.3954 9.08547 18.2596 8.13206C18.1237 7.17868 17.8014 6.26137 17.3111 5.43254C16.8207 4.60373 16.1719 3.8796 15.4017 3.30151C14.5919 2.69371 14.4282 1.54452 15.0359 0.73472ZM10.6192 16.5399C11.2263 16.4111 11.8573 16.5981 12.2961 17.037L26.9624 31.7036C27.4013 32.1425 27.5883 32.7735 27.4594 33.3805C27.3307 33.9875 26.9035 34.4882 26.3242 34.7112L2.49146 43.8778C1.81525 44.1378 1.04931 43.9753 0.537011 43.4629C0.0247155 42.9507 -0.137829 42.1847 0.12225 41.5084L9.28869 17.6752C9.51147 17.096 10.0121 16.6688 10.6192 16.5399ZM11.6982 21.6245L9.57377 27.1481L16.8515 34.4261L22.3751 32.3016L11.6982 21.6245ZM5.02519 38.9748L8.13341 30.8931L13.1066 35.8663L5.02519 38.9748ZM33.0137 25.8958C33.9466 25.6569 34.9176 25.6041 35.8707 25.7405C36.824 25.8769 37.7412 26.1996 38.5698 26.6903C39.3983 27.1811 40.1221 27.8303 40.6998 28.6009C41.3071 29.411 42.4562 29.5755 43.2664 28.9681C44.0765 28.3607 44.2407 27.2116 43.6334 26.4014C42.7668 25.2457 41.6813 24.2718 40.4383 23.5357C39.1955 22.7995 37.8198 22.3153 36.3899 22.1107C34.9599 21.9063 33.5037 21.9853 32.1044 22.3437C30.705 22.7019 29.3898 23.3324 28.2341 24.1988C27.424 24.8062 27.2597 25.9554 27.8671 26.7655C28.4745 27.5757 29.6236 27.7399 30.4335 27.1325C31.204 26.5549 32.0809 26.1347 33.0137 25.8958Z" fill="#06B0AB"/>
</g>
<defs>
<clipPath id="clip0_0_1">
<rect width="1440" height="1024" fill="white" transform="translate(-863 -268)"/>
</clipPath>
</defs>
</svg>
