<svg width="21" height="21" viewBox="0 0 21 21" fill="none" xmlns="http://www.w3.org/2000/svg">
<path d="M20.4628 4.98071C20.3795 4.73071 20.0881 4.68905 19.88 4.85571L16.5085 8.23071C16.2588 8.48071 15.8426 8.48071 15.5928 8.23071L13.2203 5.85571C12.9706 5.60571 12.9706 5.18905 13.2203 4.93905L16.6334 1.56405C16.7999 1.39738 16.7167 1.10571 16.5085 0.980713C15.9258 0.814046 15.3015 0.730713 14.7187 0.730713C11.1808 0.730713 8.35037 3.77238 8.7666 7.39738C8.84985 7.98071 8.97472 8.48071 9.18284 8.98071L1.39928 16.7307C0.483566 17.6474 0.483566 19.1474 1.39928 20.0224C1.85713 20.4807 2.48148 20.7307 3.06421 20.7307C3.64694 20.7307 4.27129 20.4807 4.72914 20.0224L12.4711 12.2724C12.9706 12.4807 13.5117 12.6057 14.0528 12.689C17.674 13.1057 20.7125 10.2724 20.7125 6.73071C20.7125 6.10571 20.6292 5.52238 20.4628 4.98071Z" fill="black"/>
</svg>
