<svg width="94" height="94" viewBox="0 0 94 94" fill="none" xmlns="http://www.w3.org/2000/svg">
<circle cx="47" cy="47" r="47" fill="#1E2737"/>
<path d="M68.3333 71.75V66.3333C68.3333 63.4602 67.192 60.7047 65.1603 58.673C63.1287 56.6414 60.3732 55.5 57.5 55.5H35.8333C32.9602 55.5 30.2047 56.6414 28.173 58.673C26.1414 60.7047 25 63.4602 25 66.3333V71.75" stroke="white" stroke-linecap="round" stroke-linejoin="round"/>
<path d="M46.6666 44.6667C52.6497 44.6667 57.4999 39.8164 57.4999 33.8333C57.4999 27.8502 52.6497 23 46.6666 23C40.6835 23 35.8333 27.8502 35.8333 33.8333C35.8333 39.8164 40.6835 44.6667 46.6666 44.6667Z" stroke="white" stroke-linecap="round" stroke-linejoin="round"/>
</svg>
